<svg xmlns="http://www.w3.org/2000/svg" width="296" height="55" fill="none" viewBox="0 0 296 55"><path fill="#fff" d="M5.67188 34.7969C5.73438 34.4844 6.125 34.1875 6.84375 33.9062C7.5625 33.625 8.45312 33.3281 9.51562 33.0156C10.5781 32.7031 11.75 32.3594 13.0312 31.9844C14.3125 31.6094 15.5469 31.1875 16.7344 30.7188C17.9219 30.25 19 29.7188 19.9688 29.125C20.9688 28.5312 21.7031 27.8438 22.1719 27.0625C22.1719 26.5938 21.8594 26.2344 21.2344 25.9844C20.6406 25.7344 19.8281 25.5312 18.7969 25.375C17.7969 25.1875 16.6406 25.0469 15.3281 24.9531C14.0469 24.8281 12.7188 24.6719 11.3438 24.4844C10 24.2656 8.67188 24.0156 7.35938 23.7344C6.07812 23.4219 4.92188 23 3.89062 22.4688C2.89062 21.9062 2.07812 21.2031 1.45312 20.3594C0.859375 19.5156 0.5625 18.4844 0.5625 17.2656C0.5625 16.0469 0.828125 14.8438 1.35938 13.6562C1.89062 12.4375 2.59375 11.2656 3.46875 10.1406C4.375 9.01562 5.39062 7.96875 6.51562 7C7.67188 6.03125 8.875 5.1875 10.125 4.46875C11.375 3.75 12.6094 3.1875 13.8281 2.78125C15.0781 2.375 16.2344 2.17188 17.2969 2.17188C17.5781 2.17188 17.875 2.17188 18.1875 2.17188C18.5 2.14062 18.7656 2.15625 18.9844 2.21875C19.2344 2.25 19.4375 2.35938 19.5938 2.54688C19.75 2.73438 19.8281 3.01562 19.8281 3.39062C19.8281 4.29688 19.5312 4.95312 18.9375 5.35938C18.3438 5.73438 17.625 5.92188 16.7812 5.92188L14.9531 4.60938C14.2344 4.60938 13.4375 4.8125 12.5625 5.21875C11.7188 5.625 10.8438 6.17188 9.9375 6.85938C9.0625 7.51562 8.20312 8.28125 7.35938 9.15625C6.51562 10.0312 5.76562 10.9375 5.10938 11.875C4.48438 12.8125 3.96875 13.75 3.5625 14.6875C3.1875 15.625 3 16.4688 3 17.2188C3 18.3125 3.29688 19.2031 3.89062 19.8906C4.51562 20.5469 5.32812 21.0781 6.32812 21.4844C7.35938 21.8594 8.53125 22.1406 9.84375 22.3281C11.1562 22.5156 12.4844 22.6719 13.8281 22.7969C15.1719 22.9219 16.5 23.0469 17.8125 23.1719C19.125 23.2656 20.2812 23.4531 21.2812 23.7344C22.3125 24.0156 23.125 24.3906 23.7188 24.8594C24.3438 25.3281 24.6562 25.9688 24.6562 26.7812C25 27.2812 24.9219 27.8594 24.4219 28.5156C23.9531 29.1406 23.2031 29.7812 22.1719 30.4375C21.1719 31.0625 19.9688 31.7031 18.5625 32.3594C17.1875 32.9844 15.7656 33.5625 14.2969 34.0938C12.8281 34.5938 11.4062 35.0312 10.0312 35.4062C8.65625 35.75 7.48438 35.9688 6.51562 36.0625C6.23438 36.0625 5.98438 35.9688 5.76562 35.7812C5.57812 35.5938 5.54688 35.2656 5.67188 34.7969ZM40.5 35.7812C40.3438 34.9688 40.2031 34 40.0781 32.875C39.9844 31.7188 39.875 30.5625 39.75 29.4062C39.625 28.2188 39.4688 27.1094 39.2812 26.0781C39.125 25.0469 38.875 24.2031 38.5312 23.5469C36.9375 26.7969 35.5312 29.3594 34.3125 31.2344C33.0938 33.0781 32.0156 34.4062 31.0781 35.2188C30.1719 36 29.4062 36.375 28.7812 36.3438C28.1562 36.3125 27.6406 36.0312 27.2344 35.5C26.8281 34.9688 26.5312 34.2969 26.3438 33.4844C26.1875 32.6406 26.0781 31.8594 26.0156 31.1406C26.0156 30.4531 26.1719 29.4844 26.4844 28.2344C26.7969 26.9844 27.2188 25.625 27.75 24.1562C28.2812 22.6562 28.9062 21.1406 29.625 19.6094C30.375 18.0781 31.1719 16.6875 32.0156 15.4375C32.8594 14.1875 33.7344 13.1562 34.6406 12.3438C35.5469 11.5312 36.4531 11.125 37.3594 11.125C38.7031 10.9062 39.6875 11.2031 40.3125 12.0156C40.9688 12.7969 41.0938 14.125 40.6875 16C40.6875 18.0625 40.7656 19.8281 40.9219 21.2969C41.1094 22.7656 41.2969 24.1719 41.4844 25.5156C41.7031 26.8594 41.8906 28.2656 42.0469 29.7344C42.2344 31.2031 42.3281 32.9688 42.3281 35.0312C42.3281 35.4062 42.2812 35.7344 42.1875 36.0156C42.125 36.2656 41.75 36.3906 41.0625 36.3906C40.9688 36.3906 40.8438 36.3125 40.6875 36.1562C40.5625 36 40.5 35.875 40.5 35.7812ZM37.9688 14.8281C37.625 14.3281 37.1562 14.2812 36.5625 14.6875C35.9688 15.0938 35.3438 15.7656 34.6875 16.7031C34.0312 17.6406 33.3594 18.7656 32.6719 20.0781C31.9844 21.3906 31.3438 22.7188 30.75 24.0625C30.1562 25.4062 29.6406 26.6875 29.2031 27.9062C28.7656 29.0938 28.4688 30.0781 28.3125 30.8594C28.3125 31.9844 28.4844 32.625 28.8281 32.7812C29.1719 32.9062 29.5938 32.7188 30.0938 32.2188C30.5938 31.7188 31.1562 31 31.7812 30.0625C32.4375 29.125 33.0625 28.125 33.6562 27.0625C34.2812 26 34.8594 24.9688 35.3906 23.9688C35.9531 22.9688 36.3906 22.1562 36.7031 21.5312C36.9844 20.875 37.2031 20.2656 37.3594 19.7031C37.5156 19.1406 37.6406 18.6094 37.7344 18.1094C37.8594 17.5781 37.9219 17.0469 37.9219 16.5156C37.9531 15.9844 37.9688 15.4219 37.9688 14.8281ZM44.7656 14.4062V14.0312C44.7656 13.7188 44.875 13.5 45.0938 13.375C45.3438 13.25 45.625 13.1875 45.9375 13.1875C46.1875 13.1875 46.4219 13.2188 46.6406 13.2812C46.8594 13.3125 47.0312 13.4844 47.1562 13.7969C47.25 14.2656 47.3438 14.9219 47.4375 15.7656C47.5312 16.5781 47.6406 17.4844 47.7656 18.4844C47.8906 19.4844 48.0156 20.5469 48.1406 21.6719C48.2969 22.7656 48.4375 23.8125 48.5625 24.8125C48.7188 25.7812 48.875 26.6562 49.0312 27.4375C49.1875 28.2188 49.3594 28.8125 49.5469 29.2188C49.4531 26.2188 49.5469 23.625 49.8281 21.4375C50.1094 19.2188 50.6406 17.4219 51.4219 16.0469C52.2344 14.6406 53.3281 13.6719 54.7031 13.1406C56.1094 12.5781 57.8594 12.4531 59.9531 12.7656C60.9219 12.7656 61.4062 13.2812 61.4062 14.3125C61.4062 14.7188 61.1406 15 60.6094 15.1562C60.0781 15.2812 59.4844 15.375 58.8281 15.4375C58.1719 15.4688 57.5312 15.5156 56.9062 15.5781C56.2812 15.6406 55.8281 15.7969 55.5469 16.0469C54.4219 16.6719 53.625 17.6406 53.1562 18.9531C52.7188 20.2656 52.4062 21.8125 52.2188 23.5938C52.0312 25.375 51.8906 27.3281 51.7969 29.4531C51.7344 31.5469 51.5312 33.7031 51.1875 35.9219C51.1875 36.2344 51.0625 36.4688 50.8125 36.625C50.5625 36.7812 50.25 36.8594 49.875 36.8594C49.5312 36.8594 49.1875 36.7812 48.8438 36.625C48.5312 36.4688 48.2812 36.2344 48.0938 35.9219L44.7656 14.4062ZM65.0625 16.9844C64.75 17.1406 64.4531 17.3125 64.1719 17.5C63.9219 17.6562 63.6719 17.8125 63.4219 17.9688C63.1719 18.0938 62.9219 18.1875 62.6719 18.25C62.4219 18.3125 62.1562 18.3125 61.875 18.25C61.6875 18.25 61.5312 18.1406 61.4062 17.9219C61.2812 17.6719 61.1875 17.4062 61.125 17.125C61.0312 16.8125 60.9688 16.5156 60.9375 16.2344C60.9062 15.9219 60.9062 15.6875 60.9375 15.5312L65.4375 12.9531L65.7188 0.953125C65.7812 0.546875 66.0312 0.390625 66.4688 0.484375C66.9062 0.546875 67.3594 0.640625 67.8281 0.765625C67.8906 0.765625 67.9844 0.796875 68.1094 0.859375C68.2656 0.890625 68.375 0.921875 68.4375 0.953125C68.375 1.79688 68.2969 2.71875 68.2031 3.71875C68.1406 4.6875 68.0781 5.67188 68.0156 6.67188C67.9531 7.64062 67.9062 8.59375 67.875 9.53125C67.875 10.4688 67.9219 11.3125 68.0156 12.0625L75.0469 10.0938C75.1719 10.0625 75.2656 10.1562 75.3281 10.375C75.4219 10.5625 75.5 10.7969 75.5625 11.0781C75.6562 11.3594 75.7188 11.6406 75.75 11.9219C75.7812 12.2031 75.7969 12.3438 75.7969 12.3438L67.8281 15.7188C67.8281 16 67.8438 16.6719 67.875 17.7344C67.9375 18.7969 68 20.0625 68.0625 21.5312C68.125 22.9688 68.1875 24.5312 68.25 26.2188C68.3125 27.875 68.375 29.4219 68.4375 30.8594C68.5 32.2969 68.5469 33.5625 68.5781 34.6562C68.6094 35.7188 68.625 36.3906 68.625 36.6719C68.5625 37.6094 68.2812 38.0781 67.7812 38.0781C67.3125 38.0781 66.7969 37.8438 66.2344 37.375L65.0625 16.9844ZM93.5156 16.5156C92.3594 16.0781 91.25 16.25 90.1875 17.0312C89.125 17.8125 88.1094 18.9219 87.1406 20.3594C86.1719 21.7656 85.25 23.375 84.375 25.1875C83.5 27 82.6875 28.7188 81.9375 30.3438C81.1875 31.9688 80.5 33.3594 79.875 34.5156C79.2812 35.6719 78.7344 36.3125 78.2344 36.4375C77.8594 36.4375 77.5625 36.375 77.3438 36.25C77.1562 36.0938 77.0625 35.7344 77.0625 35.1719V2.21875C77.0625 1.9375 77.1719 1.76562 77.3906 1.70312C77.6406 1.64062 77.9062 1.625 78.1875 1.65625C78.4688 1.6875 78.7344 1.76562 78.9844 1.89062C79.2344 1.98438 79.3906 2.09375 79.4531 2.21875L80.0625 28.6094C80.4062 28.0469 80.7188 27.2656 81 26.2656C81.3125 25.2344 81.6719 24.1406 82.0781 22.9844C82.4844 21.7969 82.9531 20.625 83.4844 19.4688C84.0469 18.2812 84.7344 17.2188 85.5469 16.2812C86.3594 15.3438 87.3438 14.625 88.5 14.125C89.6875 13.5938 91.0781 13.4062 92.6719 13.5625C93.7344 13.5625 94.5938 13.9062 95.25 14.5938C95.9062 15.25 96.25 16.125 96.2812 17.2188L96.75 35.9219C96.75 36.0469 96.7188 36.2344 96.6562 36.4844C96.625 36.7031 96.5 36.8906 96.2812 37.0469C96.0938 37.2344 95.8125 37.3438 95.4375 37.375C95.0938 37.4375 94.6406 37.3594 94.0781 37.1406L93.5156 16.5156ZM112.406 35.7812C112.25 34.9688 112.109 34 111.984 32.875C111.891 31.7188 111.781 30.5625 111.656 29.4062C111.531 28.2188 111.375 27.1094 111.188 26.0781C111.031 25.0469 110.781 24.2031 110.438 23.5469C108.844 26.7969 107.438 29.3594 106.219 31.2344C105 33.0781 103.922 34.4062 102.984 35.2188C102.078 36 101.312 36.375 100.688 36.3438C100.062 36.3125 99.5469 36.0312 99.1406 35.5C98.7344 34.9688 98.4375 34.2969 98.25 33.4844C98.0938 32.6406 97.9844 31.8594 97.9219 31.1406C97.9219 30.4531 98.0781 29.4844 98.3906 28.2344C98.7031 26.9844 99.125 25.625 99.6562 24.1562C100.188 22.6562 100.812 21.1406 101.531 19.6094C102.281 18.0781 103.078 16.6875 103.922 15.4375C104.766 14.1875 105.641 13.1562 106.547 12.3438C107.453 11.5312 108.359 11.125 109.266 11.125C110.609 10.9062 111.594 11.2031 112.219 12.0156C112.875 12.7969 113 14.125 112.594 16C112.594 18.0625 112.672 19.8281 112.828 21.2969C113.016 22.7656 113.203 24.1719 113.391 25.5156C113.609 26.8594 113.797 28.2656 113.953 29.7344C114.141 31.2031 114.234 32.9688 114.234 35.0312C114.234 35.4062 114.188 35.7344 114.094 36.0156C114.031 36.2656 113.656 36.3906 112.969 36.3906C112.875 36.3906 112.75 36.3125 112.594 36.1562C112.469 36 112.406 35.875 112.406 35.7812ZM109.875 14.8281C109.531 14.3281 109.062 14.2812 108.469 14.6875C107.875 15.0938 107.25 15.7656 106.594 16.7031C105.938 17.6406 105.266 18.7656 104.578 20.0781C103.891 21.3906 103.25 22.7188 102.656 24.0625C102.062 25.4062 101.547 26.6875 101.109 27.9062C100.672 29.0938 100.375 30.0781 100.219 30.8594C100.219 31.9844 100.391 32.625 100.734 32.7812C101.078 32.9062 101.5 32.7188 102 32.2188C102.5 31.7188 103.062 31 103.688 30.0625C104.344 29.125 104.969 28.125 105.562 27.0625C106.188 26 106.766 24.9688 107.297 23.9688C107.859 22.9688 108.297 22.1562 108.609 21.5312C108.891 20.875 109.109 20.2656 109.266 19.7031C109.422 19.1406 109.547 18.6094 109.641 18.1094C109.766 17.5781 109.828 17.0469 109.828 16.5156C109.859 15.9844 109.875 15.4219 109.875 14.8281ZM118.031 1C118.688 0.375 119.203 0.125 119.578 0.25C119.984 0.375 120.281 0.796875 120.469 1.51562C120.656 2.23438 120.766 3.17188 120.797 4.32812C120.828 5.48438 120.812 6.79688 120.75 8.26562C120.719 9.70312 120.641 11.2344 120.516 12.8594C120.391 14.4531 120.281 16.0312 120.188 17.5938C120.094 19.125 120.031 20.5938 120 22C119.969 23.4062 120.016 24.625 120.141 25.6562H120.281C120.344 25.6562 120.391 25.6406 120.422 25.6094C122.047 23.9844 123.5 22.2656 124.781 20.4531C126.062 18.6406 127.219 16.9375 128.25 15.3438C129.281 13.7188 130.188 12.3125 130.969 11.125C131.781 9.9375 132.531 9.125 133.219 8.6875C133.688 8.6875 134.078 8.76562 134.391 8.92188C134.734 9.07812 134.906 9.4375 134.906 10C134.906 10.0625 134.891 10.1719 134.859 10.3281C134.859 10.4531 134.859 10.5469 134.859 10.6094C134.078 12.2031 133.219 13.8125 132.281 15.4375C131.344 17.0312 130.328 18.5781 129.234 20.0781C128.141 21.5781 126.953 23 125.672 24.3438C124.422 25.6875 123.062 26.9062 121.594 28C121.594 28.0312 121.578 28.0938 121.547 28.1875C121.547 28.25 121.547 28.2969 121.547 28.3281C121.547 28.6406 121.797 28.9844 122.297 29.3594C122.828 29.7344 123.484 30.0938 124.266 30.4375C125.078 30.7812 125.969 31.125 126.938 31.4688C127.938 31.8125 128.906 32.1094 129.844 32.3594C130.812 32.6094 131.703 32.8125 132.516 32.9688C133.359 33.125 134.016 33.2031 134.484 33.2031C134.484 33.3281 134.484 33.5625 134.484 33.9062C134.516 34.25 134.5 34.6094 134.438 34.9844C134.375 35.3594 134.266 35.7031 134.109 36.0156C133.953 36.2969 133.703 36.4375 133.359 36.4375H133.172C133.109 36.4375 133.062 36.4219 133.031 36.3906L119.625 31C119.594 32.8438 119.469 34.3438 119.25 35.5C119.031 36.625 118.766 37.4531 118.453 37.9844C118.172 38.5469 117.859 38.8125 117.516 38.7812C117.203 38.75 116.922 38.5 116.672 38.0312L118.031 1ZM183.047 5.82812C182.922 5.76562 182.734 6.125 182.484 6.90625C182.266 7.65625 181.969 8.64062 181.594 9.85938C181.219 11.0469 180.812 12.4062 180.375 13.9375C179.969 15.4375 179.516 16.9375 179.016 18.4375C178.516 19.9375 178.016 21.3438 177.516 22.6562C177.016 23.9375 176.516 24.9531 176.016 25.7031C175.516 26.4531 175.047 26.875 174.609 26.9688C174.172 27.0312 173.781 26.5781 173.438 25.6094C173.188 25.1719 172.828 24.4844 172.359 23.5469C171.922 22.5781 171.406 21.5 170.812 20.3125C170.219 19.125 169.594 17.875 168.938 16.5625C168.281 15.25 167.656 14.0156 167.062 12.8594C166.5 11.6719 165.969 10.6094 165.469 9.67188C165 8.73438 164.656 8.04688 164.438 7.60938C164.062 6.92188 163.719 6.375 163.406 5.96875C163.125 5.53125 162.672 5.3125 162.047 5.3125C162.047 7.5 162.172 9.90625 162.422 12.5312C162.672 15.1562 162.938 17.8125 163.219 20.5C163.531 23.1875 163.812 25.8438 164.062 28.4688C164.312 31.0625 164.438 33.4688 164.438 35.6875C164.562 35.9688 164.516 36.2344 164.297 36.4844C164.109 36.7344 163.828 36.9219 163.453 37.0469C163.109 37.1719 162.719 37.1719 162.281 37.0469C161.875 36.9531 161.531 36.7031 161.25 36.2969C160.969 33.5156 160.812 30.6875 160.781 27.8125C160.781 24.9062 160.766 22 160.734 19.0938C160.703 16.1875 160.578 13.2812 160.359 10.375C160.141 7.4375 159.703 4.51562 159.047 1.60938C159.016 1.04688 159.109 0.703125 159.328 0.578125C159.547 0.421875 159.828 0.34375 160.172 0.34375C160.922 0.34375 161.594 0.53125 162.188 0.90625C162.812 1.25 163.375 1.70312 163.875 2.26562C164.375 2.79688 164.812 3.39062 165.188 4.04688C165.594 4.70312 165.953 5.29688 166.266 5.82812C166.516 6.23438 166.859 6.875 167.297 7.75L168.797 10.7969C169.359 11.9219 169.938 13.1094 170.531 14.3594C171.156 15.5781 171.75 16.75 172.312 17.875C172.875 18.9688 173.391 19.9531 173.859 20.8281C174.328 21.6719 174.688 22.2812 174.938 22.6562C175.062 22.6562 175.172 22.6094 175.266 22.5156C175.359 22.4219 175.484 22.1562 175.641 21.7188C175.828 21.2812 176.062 20.6094 176.344 19.7031C176.656 18.7969 177.078 17.5469 177.609 15.9531C178.141 14.3594 178.797 12.3438 179.578 9.90625C180.359 7.46875 181.312 4.5 182.438 1C182.5 0.84375 182.703 0.703125 183.047 0.578125C183.391 0.453125 183.703 0.390625 183.984 0.390625C184.266 0.390625 184.453 0.484375 184.547 0.671875C184.672 0.859375 184.766 1.17188 184.828 1.60938C185.109 4.26562 185.328 7.04688 185.484 9.95312C185.672 12.8281 185.906 15.75 186.188 18.7188C186.469 21.6562 186.812 24.5781 187.219 27.4844C187.656 30.3906 188.25 33.1562 189 35.7812L185.766 37.0469L183.047 5.82812ZM191.578 30.5781C191.359 29.1406 191.25 27.75 191.25 26.4062C191.25 25.0312 191.328 23.6406 191.484 22.2344C191.672 20.8281 191.922 19.375 192.234 17.875C192.578 16.3438 192.969 14.7031 193.406 12.9531C193.406 12.6094 193.5 12.2969 193.688 12.0156C193.875 11.7031 194.125 11.4531 194.438 11.2656C194.75 11.0469 195.078 10.875 195.422 10.75C195.766 10.625 196.094 10.5625 196.406 10.5625C197.094 10.5625 197.719 10.7812 198.281 11.2188C198.844 11.6562 199.344 12.1875 199.781 12.8125C200.25 13.4375 200.641 14.1094 200.953 14.8281C201.297 15.5156 201.578 16.1094 201.797 16.6094C202.047 17.7031 202.219 18.9531 202.312 20.3594C202.438 21.7344 202.453 23.1406 202.359 24.5781C202.266 26.0156 202.047 27.4375 201.703 28.8438C201.359 30.2188 200.875 31.4844 200.25 32.6406C199.625 33.7969 198.812 34.7656 197.812 35.5469C196.844 36.3281 195.688 36.8125 194.344 37C193.625 37 193.078 36.7656 192.703 36.2969C192.328 35.7969 192.047 35.2031 191.859 34.5156C191.703 33.7969 191.609 33.0781 191.578 32.3594C191.578 31.6406 191.578 31.0469 191.578 30.5781ZM193.969 30.4375C193.969 30.75 193.969 31.0469 193.969 31.3281C194 31.6094 194.031 31.8906 194.062 32.1719C194.125 32.4219 194.188 32.7031 194.25 33.0156C194.344 33.2969 194.453 33.625 194.578 34H194.859C195.609 34 196.25 33.75 196.781 33.25C197.312 32.75 197.766 32.1094 198.141 31.3281C198.516 30.5156 198.828 29.625 199.078 28.6562C199.328 27.6562 199.516 26.6875 199.641 25.75C199.797 24.7812 199.891 23.8906 199.922 23.0781C199.984 22.2344 200.016 21.5625 200.016 21.0625V20.125C200.016 19.7188 200 19.2656 199.969 18.7656C199.938 18.2344 199.875 17.7031 199.781 17.1719C199.719 16.6094 199.609 16.1094 199.453 15.6719C199.297 15.2031 199.094 14.8281 198.844 14.5469C198.594 14.2656 198.266 14.125 197.859 14.125C197.172 13.9062 196.578 13.9531 196.078 14.2656C195.609 14.5781 195.219 15.1094 194.906 15.8594C194.625 16.5781 194.406 17.4688 194.25 18.5312C194.094 19.5938 194 20.7656 193.969 22.0469C193.938 23.3281 193.922 24.6875 193.922 26.125C193.953 27.5625 193.969 29 193.969 30.4375ZM221.25 16.5156C220.094 16.0781 218.984 16.25 217.922 17.0312C216.859 17.8125 215.844 18.9219 214.875 20.3594C213.906 21.7656 212.984 23.375 212.109 25.1875C211.234 27 210.422 28.7188 209.672 30.3438C208.922 31.9688 208.234 33.3594 207.609 34.5156C207.016 35.6719 206.469 36.3125 205.969 36.4375C205.594 36.4375 205.297 36.375 205.078 36.25C204.891 36.0938 204.797 35.7344 204.797 35.1719V2.21875C204.797 1.9375 204.906 1.76562 205.125 1.70312C205.375 1.64062 205.641 1.625 205.922 1.65625C206.203 1.6875 206.469 1.76562 206.719 1.89062C206.969 1.98438 207.125 2.09375 207.188 2.21875L207.797 28.6094C208.141 28.0469 208.453 27.2656 208.734 26.2656C209.047 25.2344 209.406 24.1406 209.812 22.9844C210.219 21.7969 210.688 20.625 211.219 19.4688C211.781 18.2812 212.469 17.2188 213.281 16.2812C214.094 15.3438 215.078 14.625 216.234 14.125C217.422 13.5938 218.812 13.4062 220.406 13.5625C221.469 13.5625 222.328 13.9062 222.984 14.5938C223.641 15.25 223.984 16.125 224.016 17.2188L224.484 35.9219C224.484 36.0469 224.453 36.2344 224.391 36.4844C224.359 36.7031 224.234 36.8906 224.016 37.0469C223.828 37.2344 223.547 37.3438 223.172 37.375C222.828 37.4375 222.375 37.3594 221.812 37.1406L221.25 16.5156ZM240.141 35.7812C239.984 34.9688 239.844 34 239.719 32.875C239.625 31.7188 239.516 30.5625 239.391 29.4062C239.266 28.2188 239.109 27.1094 238.922 26.0781C238.766 25.0469 238.516 24.2031 238.172 23.5469C236.578 26.7969 235.172 29.3594 233.953 31.2344C232.734 33.0781 231.656 34.4062 230.719 35.2188C229.812 36 229.047 36.375 228.422 36.3438C227.797 36.3125 227.281 36.0312 226.875 35.5C226.469 34.9688 226.172 34.2969 225.984 33.4844C225.828 32.6406 225.719 31.8594 225.656 31.1406C225.656 30.4531 225.812 29.4844 226.125 28.2344C226.438 26.9844 226.859 25.625 227.391 24.1562C227.922 22.6562 228.547 21.1406 229.266 19.6094C230.016 18.0781 230.812 16.6875 231.656 15.4375C232.5 14.1875 233.375 13.1562 234.281 12.3438C235.188 11.5312 236.094 11.125 237 11.125C238.344 10.9062 239.328 11.2031 239.953 12.0156C240.609 12.7969 240.734 14.125 240.328 16C240.328 18.0625 240.406 19.8281 240.562 21.2969C240.75 22.7656 240.938 24.1719 241.125 25.5156C241.344 26.8594 241.531 28.2656 241.688 29.7344C241.875 31.2031 241.969 32.9688 241.969 35.0312C241.969 35.4062 241.922 35.7344 241.828 36.0156C241.766 36.2656 241.391 36.3906 240.703 36.3906C240.609 36.3906 240.484 36.3125 240.328 36.1562C240.203 36 240.141 35.875 240.141 35.7812ZM237.609 14.8281C237.266 14.3281 236.797 14.2812 236.203 14.6875C235.609 15.0938 234.984 15.7656 234.328 16.7031C233.672 17.6406 233 18.7656 232.312 20.0781C231.625 21.3906 230.984 22.7188 230.391 24.0625C229.797 25.4062 229.281 26.6875 228.844 27.9062C228.406 29.0938 228.109 30.0781 227.953 30.8594C227.953 31.9844 228.125 32.625 228.469 32.7812C228.812 32.9062 229.234 32.7188 229.734 32.2188C230.234 31.7188 230.797 31 231.422 30.0625C232.078 29.125 232.703 28.125 233.297 27.0625C233.922 26 234.5 24.9688 235.031 23.9688C235.594 22.9688 236.031 22.1562 236.344 21.5312C236.625 20.875 236.844 20.2656 237 19.7031C237.156 19.1406 237.281 18.6094 237.375 18.1094C237.5 17.5781 237.562 17.0469 237.562 16.5156C237.594 15.9844 237.609 15.4219 237.609 14.8281ZM246.375 36.3906C246.031 32.1719 245.719 27.9531 245.438 23.7344C245.188 19.4844 244.906 15.0781 244.594 10.5156C244.594 9.76562 245 9.39062 245.812 9.39062H246.188C246.281 9.39062 246.391 9.51562 246.516 9.76562C246.641 10.0156 246.766 10.4844 246.891 11.1719C247.047 11.8281 247.203 12.8438 247.359 14.2188C247.547 15.5625 247.766 17.3281 248.016 19.5156C248.266 21.7031 248.547 24.4375 248.859 27.7188C249.516 25.5938 250.031 23.5312 250.406 21.5312C250.781 19.5312 251.266 17.7188 251.859 16.0938C252.453 14.4375 253.281 12.9844 254.344 11.7344C255.438 10.4844 257 9.5625 259.031 8.96875C260.156 9.15625 261.062 9.84375 261.75 11.0312C262.438 12.1875 262.984 13.625 263.391 15.3438C263.797 17.0625 264.078 18.9375 264.234 20.9688C264.391 22.9688 264.484 24.8906 264.516 26.7344C264.547 28.5781 264.562 30.2344 264.562 31.7031C264.562 33.1406 264.594 34.1719 264.656 34.7969C264.562 35.0469 264.422 35.2656 264.234 35.4531C264.047 35.6406 263.828 35.7812 263.578 35.875C263.359 35.9375 263.141 35.9531 262.922 35.9219C262.703 35.8594 262.5 35.6875 262.312 35.4062C262.312 35.0625 262.281 34.3594 262.219 33.2969C262.156 32.2344 262.078 31 261.984 29.5938C261.891 28.1562 261.781 26.6406 261.656 25.0469C261.562 23.4219 261.469 21.9062 261.375 20.5C261.312 19.0625 261.25 17.8125 261.188 16.75C261.125 15.6875 261.078 14.9844 261.047 14.6406C260.391 13.4844 259.734 12.8281 259.078 12.6719C258.453 12.5156 257.812 12.7188 257.156 13.2812C256.531 13.8438 255.922 14.7031 255.328 15.8594C254.734 17.0156 254.172 18.3281 253.641 19.7969C253.109 21.2344 252.609 22.75 252.141 24.3438C251.672 25.9375 251.266 27.4844 250.922 28.9844C250.578 30.4531 250.281 31.7969 250.031 33.0156C249.812 34.2031 249.672 35.125 249.609 35.7812C249.516 36 249.312 36.2188 249 36.4375C248.719 36.625 248.406 36.7656 248.062 36.8594C247.75 36.9531 247.422 36.9844 247.078 36.9531C246.766 36.8906 246.531 36.7031 246.375 36.3906ZM268.875 16.9844C268.562 17.1406 268.266 17.3125 267.984 17.5C267.734 17.6562 267.484 17.8125 267.234 17.9688C266.984 18.0938 266.734 18.1875 266.484 18.25C266.234 18.3125 265.969 18.3125 265.688 18.25C265.5 18.25 265.344 18.1406 265.219 17.9219C265.094 17.6719 265 17.4062 264.938 17.125C264.844 16.8125 264.781 16.5156 264.75 16.2344C264.719 15.9219 264.719 15.6875 264.75 15.5312L269.25 12.9531L269.531 0.953125C269.594 0.546875 269.844 0.390625 270.281 0.484375C270.719 0.546875 271.172 0.640625 271.641 0.765625C271.703 0.765625 271.797 0.796875 271.922 0.859375C272.078 0.890625 272.188 0.921875 272.25 0.953125C272.188 1.79688 272.109 2.71875 272.016 3.71875C271.953 4.6875 271.891 5.67188 271.828 6.67188C271.766 7.64062 271.719 8.59375 271.688 9.53125C271.688 10.4688 271.734 11.3125 271.828 12.0625L278.859 10.0938C278.984 10.0625 279.078 10.1562 279.141 10.375C279.234 10.5625 279.312 10.7969 279.375 11.0781C279.469 11.3594 279.531 11.6406 279.562 11.9219C279.594 12.2031 279.609 12.3438 279.609 12.3438L271.641 15.7188C271.641 16 271.656 16.6719 271.688 17.7344C271.75 18.7969 271.812 20.0625 271.875 21.5312C271.938 22.9688 272 24.5312 272.062 26.2188C272.125 27.875 272.188 29.4219 272.25 30.8594C272.312 32.2969 272.359 33.5625 272.391 34.6562C272.422 35.7188 272.438 36.3906 272.438 36.6719C272.375 37.6094 272.094 38.0781 271.594 38.0781C271.125 38.0781 270.609 37.8438 270.047 37.375L268.875 16.9844ZM292.547 36.8125L280.453 17.4531C280.422 17.4219 280.391 17.3125 280.359 17.125C280.328 16.9062 280.312 16.7344 280.312 16.6094C280.312 16.2031 280.375 15.8594 280.5 15.5781C280.656 15.2656 281.031 15.1094 281.625 15.1094C281.75 15.1094 281.969 15.1875 282.281 15.3438C282.594 15.4688 282.781 15.5938 282.844 15.7188C283.531 16.8125 284.234 18.0312 284.953 19.375C285.703 20.7188 286.469 22.0625 287.25 23.4062C288.062 24.75 288.906 26.0469 289.781 27.2969C290.656 28.5156 291.578 29.5625 292.547 30.4375L293.672 12.0625C293.703 12.0625 293.781 12.0625 293.906 12.0625C294.062 12.0312 294.172 12.0156 294.234 12.0156C294.516 12.0156 294.797 12.0625 295.078 12.1562C295.359 12.2188 295.562 12.4219 295.688 12.7656C295.719 13.8906 295.719 15.2812 295.688 16.9375C295.688 18.5938 295.656 20.2969 295.594 22.0469C295.562 23.7969 295.516 25.4844 295.453 27.1094C295.422 28.7031 295.391 29.9844 295.359 30.9531C295.328 31.5781 295.266 32.5156 295.172 33.7656C295.109 35.0156 295.016 36.4219 294.891 37.9844C294.797 39.5781 294.672 41.25 294.516 43C294.391 44.75 294.266 46.4062 294.141 47.9688C294.016 49.5312 293.906 50.9375 293.812 52.1875C293.719 53.4688 293.641 54.3906 293.578 54.9531H291.141L292.547 36.8125Z"/></svg>