<?xml version="1.0" standalone="no"?>
<!DOCTYPE svg PUBLIC "-//W3C//DTD SVG 20010904//EN"
 "http://www.w3.org/TR/2001/REC-SVG-20010904/DTD/svg10.dtd">
<svg version="1.0" xmlns="http://www.w3.org/2000/svg"
 width="417.000000pt" height="417.000000pt" viewBox="0 0 417.000000 417.000000"
 preserveAspectRatio="xMidYMid meet">
<metadata>
Created by potrace 1.11, written by Peter Selinger 2001-2013
</metadata>
<g transform="translate(0.000000,417.000000) scale(0.100000,-0.100000)"
fill="#000000" stroke="none">
<path d="M555 3957 c-93 -24 -170 -82 -215 -160 -54 -95 -117 -319 -134 -477
-3 -30 -9 -73 -12 -95 -18 -131 -1 -481 31 -635 3 -14 8 -38 11 -55 10 -57 36
-150 66 -242 l31 -91 -40 -49 c-115 -138 -175 -259 -223 -451 -29 -118 -32
-132 -55 -302 -13 -97 -13 -472 0 -540 3 -19 13 -66 21 -105 8 -38 17 -81 20
-94 19 -91 108 -269 172 -342 138 -156 360 -140 556 41 85 78 133 155 167 265
18 58 16 226 -5 325 -47 232 -198 687 -337 1025 -44 104 -79 193 -79 198 0 13
119 125 230 218 269 224 591 419 795 480 45 14 118 20 131 12 6 -5 16 -57 23
-118 7 -60 14 -121 16 -135 2 -14 6 -56 10 -95 3 -38 8 -81 10 -95 2 -14 7
-65 10 -114 4 -50 8 -97 10 -105 1 -9 6 -65 10 -126 4 -60 9 -123 10 -140 2
-16 6 -84 9 -150 4 -66 9 -133 12 -149 3 -16 7 -128 9 -249 5 -239 10 -260 62
-273 37 -10 74 6 94 41 16 27 46 144 64 245 3 19 21 96 40 170 32 126 66 309
80 425 3 28 8 61 10 75 2 14 6 48 10 75 47 388 121 624 233 743 72 77 138 80
223 10 64 -53 150 -248 195 -443 22 -94 21 -94 43 -225 19 -112 25 -154 36
-255 3 -27 7 -66 10 -85 4 -35 12 -128 20 -245 2 -33 7 -116 10 -185 7 -138
21 -177 67 -192 35 -12 78 8 95 42 11 24 17 96 28 380 10 241 15 353 21 455
10 188 24 368 29 405 2 14 7 50 10 80 20 168 58 228 181 280 213 92 389 -111
488 -560 28 -128 44 -216 52 -287 3 -27 7 -59 9 -73 3 -27 13 -117 20 -195 3
-27 7 -113 10 -190 9 -245 15 -308 37 -388 17 -64 25 -80 47 -91 28 -13 33
-14 72 -3 45 12 55 46 35 127 -17 72 -21 113 -31 360 -7 155 -9 183 -20 300
-25 273 -80 549 -146 730 -109 297 -270 452 -469 452 -164 -1 -329 -100 -395
-238 -24 -51 -28 -67 -41 -153 -4 -25 -8 -54 -10 -63 -1 -9 -6 -51 -9 -92 -4
-42 -8 -84 -10 -93 -2 -10 -4 -29 -5 -43 -1 -14 -16 34 -35 105 -88 343 -207
532 -365 579 -66 20 -157 14 -213 -13 -164 -79 -296 -347 -351 -711 -3 -19
-12 -78 -20 -130 -14 -89 -17 -114 -31 -230 -3 -25 -10 -72 -16 -105 -6 -33
-11 -68 -13 -77 -6 -46 -16 -24 -17 38 -1 38 -3 78 -4 89 -2 11 -6 65 -10 120
-3 55 -8 114 -9 130 -4 33 -15 155 -21 225 -2 25 -9 86 -14 135 -6 50 -13 117
-16 150 -15 146 -26 201 -49 236 -36 54 -85 74 -181 73 -121 -1 -286 -63 -500
-187 -62 -36 -223 -139 -250 -159 -5 -5 -53 -40 -105 -80 -104 -78 -184 -145
-269 -225 -31 -29 -59 -53 -62 -53 -7 0 -8 4 -43 136 -26 95 -42 177 -52 259
-3 28 -7 66 -10 85 -6 51 -6 372 0 401 3 13 8 51 11 84 9 85 31 185 68 300 78
243 198 261 655 96 78 -28 151 -51 163 -51 56 0 92 96 50 134 -27 25 -328 133
-451 162 -90 21 -233 27 -295 11z m-68 -2107 c19 -47 43 -107 53 -135 10 -27
32 -88 50 -135 77 -209 180 -556 204 -687 17 -94 13 -206 -10 -263 -57 -146
-236 -275 -353 -255 -111 19 -231 268 -258 535 -10 98 -10 375 0 467 20 188
76 403 130 508 17 33 34 62 37 65 3 3 18 25 35 49 l30 44 23 -54 c13 -30 40
-92 59 -139z"/>
</g>
</svg>
