<svg width="105" height="95" viewBox="0 0 105 95" fill="none" xmlns="http://www.w3.org/2000/svg">
<path d="M31.2672 6.86983C24.6141 4.73364 13.1615 -1.34938 9.66246 7.73058C5.4953 18.5442 6.03235 34.5292 10.875 45.2804C14.7984 53.9908 18.1059 62.7707 20.6853 71.9634C21.9227 76.3733 23.476 81.7937 21.2365 86.1656C19.0979 90.3404 11.7267 96.0163 7.34766 90.7921C0.266792 82.3447 1.49899 64.0122 5.03287 54.1568C9.86729 40.6745 44.66 18.0594 44.66 28.6574C45.9807 38.8219 47.0927 53.1611 47.581 63.4099C47.6732 65.3442 47.6362 67.2839 47.6362 69.2199C47.6362 72.6472 49.2909 62.5556 50.2816 59.2675C53.2519 49.4102 52.1004 29.6258 61.0289 24.3537C74.4217 19.4583 75.5495 58.508 75.9098 64.4858C76.4703 73.787 76.515 39.6304 78.6104 30.5403C79.3996 27.1167 82.8523 24.7305 86.3264 24.3537C99.189 22.9587 100.853 52.8596 101.152 60.4511C101.289 63.9311 101.103 66.6023 102.199 69.8116" stroke="white" stroke-width="4" stroke-linecap="round" stroke-linejoin="round"/>
</svg>
